<?xml version="1.0" encoding="utf-8"?>
<!-- Generator: Adobe Illustrator 25.0.1, SVG Export Plug-In . SVG Version: 6.00 Build 0)  -->
<svg version="1.1" id="Layer_1" xmlns="http://www.w3.org/2000/svg" xmlns:xlink="http://www.w3.org/1999/xlink" x="0px" y="0px"
	 viewBox="0 0 205 137" style="enable-background:new 0 0 205 137;" xml:space="preserve">
<g>
	<path d="M24.98,5.25h-2.75l-0.72,1.56h-1.04L23.65,0l3.06,6.81h-1.06L24.98,5.25z M24.59,4.35l-0.95-2.18l-1,2.18H24.59z"/>
	<path d="M36.17,1.31H33.6v1.54h2.5v0.91h-2.5V5.9h2.57v0.91h-3.54V0.4h3.54V1.31z"/>
	<path d="M46.19,1.36L45.4,1.82c-0.15-0.25-0.29-0.42-0.42-0.5c-0.14-0.09-0.32-0.13-0.54-0.13c-0.27,0-0.49,0.08-0.67,0.23
		c-0.18,0.15-0.27,0.34-0.27,0.56c0,0.31,0.23,0.56,0.7,0.76L44.85,3c0.52,0.21,0.9,0.47,1.14,0.77c0.24,0.3,0.36,0.67,0.36,1.11
		c0,0.59-0.2,1.08-0.59,1.46c-0.4,0.39-0.89,0.58-1.48,0.58c-0.56,0-1.02-0.16-1.38-0.49c-0.36-0.33-0.58-0.79-0.67-1.39l0.98-0.22
		c0.04,0.38,0.12,0.64,0.23,0.78c0.2,0.28,0.49,0.41,0.87,0.41c0.3,0,0.55-0.1,0.75-0.3c0.2-0.2,0.3-0.46,0.3-0.77
		c0-0.12-0.02-0.24-0.05-0.34c-0.03-0.1-0.09-0.2-0.16-0.29c-0.07-0.09-0.17-0.17-0.28-0.24C44.76,4,44.62,3.93,44.46,3.86
		L43.84,3.6c-0.88-0.37-1.32-0.91-1.32-1.63c0-0.48,0.18-0.88,0.55-1.21c0.37-0.33,0.83-0.49,1.38-0.49
		C45.19,0.28,45.77,0.64,46.19,1.36z"/>
	<path d="M54.52,1.31v5.5h-0.97v-5.5h-1.48V0.4H56v0.91H54.52z"/>
	<path d="M62.94,2.91h2.77V0.4h0.97v6.41h-0.97V3.82h-2.77v2.99h-0.97V0.4h0.97V2.91z"/>
	<path d="M76.87,1.31H74.3v1.54h2.5v0.91h-2.5V5.9h2.57v0.91h-3.54V0.4h3.54V1.31z"/>
	<path d="M85.03,1.31v5.5h-0.97v-5.5h-1.48V0.4h3.92v0.91H85.03z"/>
	<path d="M93.44,0.4v6.41h-0.97V0.4H93.44z"/>
	<path d="M104.84,0.75v1.15c-0.56-0.47-1.14-0.7-1.74-0.7c-0.66,0-1.22,0.24-1.67,0.71c-0.45,0.47-0.68,1.05-0.68,1.73
		c0,0.67,0.23,1.24,0.68,1.7c0.45,0.46,1.01,0.69,1.67,0.69c0.34,0,0.63-0.06,0.87-0.17c0.13-0.06,0.27-0.13,0.41-0.22
		c0.14-0.09,0.29-0.21,0.45-0.34v1.17c-0.55,0.31-1.14,0.47-1.75,0.47c-0.92,0-1.7-0.32-2.35-0.96c-0.65-0.64-0.97-1.42-0.97-2.33
		c0-0.82,0.27-1.54,0.81-2.18c0.67-0.78,1.53-1.17,2.58-1.17C103.75,0.28,104.3,0.43,104.84,0.75z"/>
	<path d="M122.54,1.36l-0.79,0.47c-0.15-0.25-0.29-0.42-0.42-0.5c-0.14-0.09-0.32-0.13-0.54-0.13c-0.27,0-0.49,0.08-0.67,0.23
		c-0.18,0.15-0.27,0.34-0.27,0.56c0,0.31,0.23,0.56,0.7,0.76L121.21,3c0.52,0.21,0.9,0.47,1.14,0.77c0.24,0.3,0.36,0.67,0.36,1.11
		c0,0.59-0.2,1.08-0.59,1.46c-0.4,0.39-0.89,0.58-1.48,0.58c-0.56,0-1.02-0.16-1.38-0.49c-0.36-0.33-0.58-0.79-0.67-1.39l0.98-0.22
		c0.04,0.38,0.12,0.64,0.23,0.78c0.2,0.28,0.49,0.41,0.87,0.41c0.3,0,0.55-0.1,0.75-0.3c0.2-0.2,0.3-0.46,0.3-0.77
		c0-0.12-0.02-0.24-0.05-0.34c-0.03-0.1-0.09-0.2-0.16-0.29c-0.07-0.09-0.17-0.17-0.28-0.24c-0.12-0.08-0.26-0.15-0.42-0.22
		L120.2,3.6c-0.88-0.37-1.32-0.91-1.32-1.63c0-0.48,0.18-0.88,0.55-1.21c0.37-0.33,0.83-0.49,1.38-0.49
		C121.55,0.28,122.13,0.64,122.54,1.36z"/>
	<path d="M128.67,3.58c0-0.9,0.33-1.68,0.99-2.32c0.66-0.65,1.45-0.97,2.38-0.97c0.92,0,1.7,0.33,2.35,0.98
		c0.66,0.65,0.99,1.44,0.99,2.35c0,0.92-0.33,1.7-0.99,2.35c-0.66,0.64-1.46,0.97-2.4,0.97c-0.83,0-1.57-0.29-2.23-0.86
		C129.03,5.43,128.67,4.6,128.67,3.58z M129.65,3.59c0,0.71,0.24,1.29,0.72,1.75c0.47,0.46,1.02,0.69,1.64,0.69
		c0.67,0,1.24-0.23,1.7-0.7c0.46-0.47,0.69-1.04,0.69-1.72c0-0.68-0.23-1.26-0.69-1.72c-0.46-0.46-1.02-0.7-1.69-0.7
		c-0.67,0-1.23,0.23-1.69,0.7C129.88,2.35,129.65,2.91,129.65,3.59z"/>
	<path d="M146.46,0.75v1.15c-0.56-0.47-1.14-0.7-1.74-0.7c-0.66,0-1.22,0.24-1.67,0.71c-0.45,0.47-0.68,1.05-0.68,1.73
		c0,0.67,0.23,1.24,0.68,1.7c0.45,0.46,1.01,0.69,1.67,0.69c0.34,0,0.63-0.06,0.87-0.17c0.13-0.06,0.27-0.13,0.41-0.22
		c0.14-0.09,0.29-0.21,0.45-0.34v1.17c-0.55,0.31-1.14,0.47-1.75,0.47c-0.92,0-1.7-0.32-2.35-0.96c-0.65-0.64-0.97-1.42-0.97-2.33
		c0-0.82,0.27-1.54,0.81-2.18c0.67-0.78,1.53-1.17,2.58-1.17C145.36,0.28,145.92,0.43,146.46,0.75z"/>
	<path d="M153.76,0.4v6.41h-0.97V0.4H153.76z"/>
	<path d="M163.96,1.31h-2.57v1.54h2.5v0.91h-2.5V5.9h2.57v0.91h-3.54V0.4h3.54V1.31z"/>
	<path d="M172.11,1.31v5.5h-0.97v-5.5h-1.48V0.4h3.92v0.91H172.11z"/>
	<path d="M181.27,4.04l-2.1-3.64h1.11l1.47,2.56l1.47-2.56h1.11l-2.1,3.64v2.77h-0.97V4.04z"/>
	<path d="M129.91,30.57h-10.15v-5.22h25.61v5.22h-10.15v78.59h-5.32V30.57z"/>
	<path d="M67.46,100.11c0,1.24,0.33,2.32,1,3.25c0.67,0.93,2.03,1.4,4.08,1.4c1.81,0,3.15-0.37,4.02-1.1
		c0.86-0.73,1.3-1.99,1.3-3.78V86.29c0-2.17-0.2-4.01-0.59-5.51c-0.4-1.51-1.02-3.23-1.89-5.17l-9.81-18.23
		c-0.94-1.78-1.69-3.73-2.25-5.86c-0.55-2.13-0.83-3.97-0.83-5.51V33.82c0-2.79,0.9-4.97,2.72-6.56c1.81-1.59,4.29-2.38,7.44-2.38
		c3.31,0,5.79,0.64,7.44,1.91c1.65,1.28,2.48,3.31,2.48,6.09V48.1h-4.96V34.04c0-2.86-1.54-4.29-4.61-4.29
		c-1.58,0-2.76,0.44-3.54,1.33c-0.79,0.89-1.18,1.96-1.18,3.19v12.2c0,2.55,0.63,5.19,1.89,7.89c1.57,2.94,3.17,5.94,4.79,9
		c1.61,3.06,3.21,6.09,4.79,9.11c1.02,1.94,1.87,3.93,2.54,5.98c0.67,2.05,1,4.28,1,6.67v15.67c0,2.71-0.79,4.86-2.36,6.44
		c-1.58,1.59-4.25,2.38-8.03,2.38c-3.78,0-6.46-0.79-8.04-2.38c-1.58-1.58-2.36-3.85-2.36-6.79V85.36h4.96V100.11z"/>
	<path d="M199.26,25.34h5.55l-9.93,47.11v36.7h-5.32v-36.7c-0.71-3.79-9.22-43.32-9.92-47.11h5.55l7.21,36.69L199.26,25.34z"/>
	<path d="M13.23,32.42l-8.39,76.73H0l9.45-83.82h7.21l9.81,83.82h-5.43L13.23,32.42z"/>
	<path d="M60.97,136.03v-8.94l6.12,6.39v-5.82h1.27v8.89l-6.12-6.37v5.86H60.97z"/>
	<path d="M72.26,131.81c0-1.18,0.43-2.19,1.3-3.04c0.86-0.85,1.9-1.27,3.11-1.27c1.2,0,2.22,0.43,3.08,1.28
		c0.86,0.85,1.29,1.88,1.29,3.08c0,1.2-0.43,2.23-1.29,3.07c-0.87,0.84-1.91,1.26-3.14,1.26c-1.08,0-2.06-0.37-2.92-1.12
		C72.73,134.24,72.26,133.15,72.26,131.81z M73.53,131.83c0,0.93,0.31,1.69,0.93,2.28c0.62,0.6,1.34,0.89,2.15,0.89
		c0.88,0,1.62-0.3,2.23-0.91c0.61-0.62,0.91-1.36,0.91-2.25c0-0.89-0.3-1.64-0.9-2.25c-0.59-0.61-1.33-0.91-2.21-0.91
		c-0.87,0-1.61,0.3-2.21,0.91C73.83,130.2,73.53,130.94,73.53,131.83z"/>
	<path d="M84.85,136.03v-8.94l6.12,6.39v-5.82h1.27v8.89l-6.12-6.37v5.86H84.85z"/>
	<path d="M97.74,130.94h3.62v-3.28h1.27v8.38h-1.27v-3.91h-3.62v3.91h-1.27v-8.38h1.27V130.94z"/>
	<path d="M108.55,132.42l-2.74-4.76h1.46l1.92,3.35l1.92-3.35h1.46l-2.75,4.76v3.62h-1.27V132.42z"/>
	<path d="M120.4,128.85h-3.36v2.01h3.27v1.19h-3.27v2.8h3.36v1.19h-4.63v-8.38h4.63V128.85z"/>
	<path d="M123.87,131.81c0-1.18,0.43-2.19,1.3-3.04c0.86-0.85,1.9-1.27,3.11-1.27c1.2,0,2.22,0.43,3.08,1.28
		c0.86,0.85,1.29,1.88,1.29,3.08c0,1.2-0.43,2.23-1.29,3.07c-0.87,0.84-1.91,1.26-3.14,1.26c-1.08,0-2.06-0.37-2.92-1.12
		C124.34,134.24,123.87,133.15,123.87,131.81z M125.14,131.83c0,0.93,0.31,1.69,0.93,2.28c0.62,0.6,1.34,0.89,2.15,0.89
		c0.88,0,1.62-0.3,2.23-0.91c0.61-0.62,0.91-1.36,0.91-2.25c0-0.89-0.3-1.64-0.9-2.25c-0.59-0.61-1.33-0.91-2.21-0.91
		c-0.87,0-1.61,0.3-2.21,0.91C125.44,130.2,125.14,130.94,125.14,131.83z"/>
	<path d="M136.46,136.03v-8.94l6.12,6.39v-5.82h1.27v8.89l-6.12-6.37v5.86H136.46z"/>
</g>
</svg>
