<svg xmlns="http://www.w3.org/2000/svg" viewBox="0 0 135.65 28.93">
    <defs>
        <style>
            .logoCls1 {
                fill: #fff;
            }
            .logoCls2 {
                fill: #00b1a1;
            }
            .logoCls3 {
                fill: #0b6f98;
            }
        </style>
    </defs>
    <g>
		<path class="logoCls1" d="M7.13,14.66A42.35,42.35,0,0,1,0,16.92H0a42.23,42.23,0,0,0,7.13-2.26Z" />
		<path class="logoCls2" d="M88.5,11.1h0a1.14,1.14,0,0,0-1.16,1.12v4.05a1.11,1.11,0,0,0,.16.51,39.57,39.57,0,0,0,8.34-3,37.39,37.39,0,0,1,6-2.31,1.12,1.12,0,0,0-.87-.42Z" />
		<path class="logoCls2" d="M82.94,8.19a1.14,1.14,0,0,1,1.15-1.13h16.75A1.14,1.14,0,0,0,102,5.93V1.15h0A1.14,1.14,0,0,0,100.84,0H77a1.14,1.14,0,0,0-1.15,1.13V18.29a59.34,59.34,0,0,0,7.08-.61V8.19Z" />
		<path class="logoCls2" d="M62.35,8.19A1.14,1.14,0,0,1,63.5,7.06h7.85A1.14,1.14,0,0,0,72.5,5.93V1.15s0,0,0-.05A1.14,1.14,0,0,0,71.3,0h-25a1.14,1.14,0,0,0-1.15,1.13V5.93h0A1.14,1.14,0,0,0,46.3,7.06h7.81a1.14,1.14,0,0,1,1.15,1.13v6.9a44.28,44.28,0,0,0,7.09,2.07v-9Z" />
		<path class="logoCls2" d="M22.06,7.06H39.9A1.14,1.14,0,0,0,41,5.93V1.15h0A1.14,1.14,0,0,0,39.9,0H20c-5.82,0-9,3.34-9,8.11a9.81,9.81,0,0,0,1,4.36,44.4,44.4,0,0,1,6.78-2,2,2,0,0,1-.46-1.46C18.36,6.92,19.72,7.06,22.06,7.06Z" />
		<path class="logoCls2" d="M7.13,1.15h0A1.14,1.14,0,0,0,6,0H1.15A1.14,1.14,0,0,0,0,1.15V16.92a42.35,42.35,0,0,0,7.13-2.26Z" />
		<path class="logoCls2" d="M119.77,7.06h14.75a1.14,1.14,0,0,0,1.13-1.15V1.13h0A1.14,1.14,0,0,0,134.5,0H119.77C112.84,0,107.5,4.12,106,10.45a56.91,56.91,0,0,1,7.68-1C114.72,7.74,116.63,7.06,119.77,7.06Z" />
		<path class="logoCls3" d="M87.47,16.78a1.13,1.13,0,0,0,1,.58h12.42a1.14,1.14,0,0,0,1.15-1.13v-4h0a1.12,1.12,0,0,0-.28-.71,37.39,37.39,0,0,0-6,2.31A39.57,39.57,0,0,1,87.47,16.78Z" />
		<path class="logoCls3" d="M75.86,27.8h0A1.14,1.14,0,0,0,77,28.93h23.88A1.14,1.14,0,0,0,102,27.8V23h0a1.14,1.14,0,0,0-1.15-1.13H84.09a1.14,1.14,0,0,1-1.15-1.13V17.68a59.34,59.34,0,0,1-7.08.61Z" />
		<path class="logoCls3" d="M55.26,27.8h0a1.14,1.14,0,0,0,1.15,1.13H61.2a1.14,1.14,0,0,0,1.15-1.13V17.16a44.28,44.28,0,0,1-7.09-2.07Z" />
		<path class="logoCls3" d="M20,17.36H32.4c2.74,0,4.27-.23,4.27,2.24,0,2.29-1.54,2.29-4.27,2.29H12.65A1.14,1.14,0,0,0,11.5,23V27.8h0a1.14,1.14,0,0,0,1.11,1.09h20.8c6.09,0,9.09-3.62,9.09-8.48,0-5.62-3.18-9.36-9.09-9.36H22c-1.5,0-2.61,0-3.2-.54a44.4,44.4,0,0,0-6.78,2A8.62,8.62,0,0,0,20,17.36Z" />
		<path class="logoCls3" d="M0,27.8a1.14,1.14,0,0,0,1.15,1.13H6A1.14,1.14,0,0,0,7.13,27.8V14.66A42.23,42.23,0,0,1,0,16.93V27.8Z" />
		<path class="logoCls3" d="M105.56,14.17c0,8.39,6,14.76,14.21,14.76H134.5a1.14,1.14,0,0,0,1.15-1.12V23h0a1.14,1.14,0,0,0-1.15-1.13H119.77c-5.27,0-7.08-2-7.08-7.48a9.65,9.65,0,0,1,1-5,56.91,56.91,0,0,0-7.68,1A16,16,0,0,0,105.56,14.17Z" />
    </g>
</svg>